<svg width="64" height="64" viewBox="0 0 64 64" fill="none" xmlns="http://www.w3.org/2000/svg">
<path d="M34.7416 5.33604C36.6875 5.32858 38.6335 5.34814 40.5789 5.39471L41.0962 5.41338C41.6936 5.43471 42.2829 5.46138 42.9949 5.49338C45.8322 5.62671 47.7682 6.07471 49.4669 6.73338C51.2269 7.41071 52.7096 8.32804 54.1922 9.81071C55.5479 11.143 56.5971 12.7546 57.2669 14.5334C57.9256 16.232 58.3736 18.1707 58.5069 21.008C58.5389 21.7174 58.5656 22.3094 58.5869 22.9067L58.6029 23.424C58.6503 25.3686 58.6707 27.3136 58.6642 29.2587L58.6669 31.248V34.7414C58.6735 36.6873 58.653 38.6333 58.6056 40.5787L58.5896 41.096C58.5682 41.6934 58.5416 42.2827 58.5096 42.9947C58.3762 45.832 57.9229 47.768 57.2669 49.4667C56.5993 51.2474 55.5498 52.8603 54.1922 54.192C52.8588 55.5476 51.2464 56.5967 49.4669 57.2667C47.7682 57.9254 45.8322 58.3734 42.9949 58.5067C42.2829 58.5387 41.6936 58.5654 41.0962 58.5867L40.5789 58.6027C38.6335 58.6501 36.6875 58.6706 34.7416 58.664L32.7522 58.6667H29.2616C27.3156 58.6733 25.3696 58.6528 23.4242 58.6054L22.9069 58.5894C22.2739 58.5664 21.641 58.5398 21.0082 58.5094C18.1709 58.376 16.2349 57.9227 14.5336 57.2667C12.7541 56.5983 11.1422 55.5489 9.8109 54.192C8.45369 52.8595 7.4035 51.2469 6.73357 49.4667C6.0749 47.768 5.6269 45.832 5.49357 42.9947C5.46387 42.362 5.4372 41.7291 5.41357 41.096L5.40024 40.5787C5.35107 38.6333 5.32885 36.6874 5.33357 34.7414V29.2587C5.32613 27.3136 5.34568 25.3686 5.39224 23.424L5.4109 22.9067C5.43224 22.3094 5.4589 21.7174 5.4909 21.008C5.62424 18.168 6.07224 16.2347 6.7309 14.5334C7.40123 12.7537 8.45347 11.1426 9.81357 9.81338C11.144 8.45538 12.7548 7.40424 14.5336 6.73338C16.2349 6.07471 18.1682 5.62671 21.0082 5.49338L22.9069 5.41338L23.4242 5.40005C25.3687 5.35091 27.3138 5.32868 29.2589 5.33338L34.7416 5.33604ZM32.0002 18.6694C30.2336 18.6444 28.4796 18.9708 26.8402 19.6296C25.2008 20.2883 23.7086 21.2664 22.4505 22.5069C21.1924 23.7473 20.1933 25.2255 19.5114 26.8554C18.8295 28.4853 18.4783 30.2346 18.4783 32.0014C18.4783 33.7682 18.8295 35.5174 19.5114 37.1473C20.1933 38.7773 21.1924 40.2554 22.4505 41.4959C23.7086 42.7364 25.2008 43.7144 26.8402 44.3732C28.4796 45.032 30.2336 45.3584 32.0002 45.3334C35.5365 45.3334 38.9278 43.9286 41.4283 41.4281C43.9288 38.9276 45.3336 35.5363 45.3336 32C45.3336 28.4638 43.9288 25.0724 41.4283 22.572C38.9278 20.0715 35.5365 18.6694 32.0002 18.6694ZM32.0002 24.0027C33.0629 23.9831 34.1189 24.1755 35.1064 24.5686C36.0939 24.9617 36.9931 25.5476 37.7516 26.2922C38.5102 27.0367 39.1127 27.9249 39.5241 28.905C39.9355 29.885 40.1474 30.9372 40.1476 32C40.1478 33.0629 39.9362 34.1151 39.5251 35.0953C39.1141 36.0755 38.5118 36.9639 37.7536 37.7087C36.9953 38.4535 36.0962 39.0397 35.1088 39.4331C34.1215 39.8265 33.0656 40.0193 32.0029 40C29.8812 40 27.8463 39.1572 26.346 37.6569C24.8458 36.1566 24.0029 34.1218 24.0029 32C24.0029 29.8783 24.8458 27.8435 26.346 26.3432C27.8463 24.8429 29.8812 24 32.0029 24L32.0002 24.0027ZM46.0002 14.6694C45.14 14.7038 44.3264 15.0698 43.7299 15.6906C43.1333 16.3115 42.8002 17.1391 42.8002 18C42.8002 18.861 43.1333 19.6886 43.7299 20.3095C44.3264 20.9303 45.14 21.2963 46.0002 21.3307C46.8843 21.3307 47.7321 20.9795 48.3573 20.3544C48.9824 19.7293 49.3336 18.8814 49.3336 17.9974C49.3336 17.1133 48.9824 16.2655 48.3573 15.6404C47.7321 15.0152 46.8843 14.664 46.0002 14.664V14.6694Z" fill="#1E1E1E"/>
</svg>
